<?xml version="1.0" encoding="utf-8" standalone="no"?>
<!DOCTYPE svg PUBLIC "-//W3C//DTD SVG 1.1//EN"
  "http://www.w3.org/Graphics/SVG/1.1/DTD/svg11.dtd">
<svg xmlns:xlink="http://www.w3.org/1999/xlink" width="540pt" height="396pt" viewBox="0 0 540 396" xmlns="http://www.w3.org/2000/svg" version="1.1">
 <metadata>
  <rdf:RDF xmlns:dc="http://purl.org/dc/elements/1.1/" xmlns:cc="http://creativecommons.org/ns#" xmlns:rdf="http://www.w3.org/1999/02/22-rdf-syntax-ns#">
   <cc:Work>
    <dc:type rdf:resource="http://purl.org/dc/dcmitype/StillImage"/>
    <dc:date>2026-07-17T11:46:39.880659</dc:date>
    <dc:format>image/svg+xml</dc:format>
    <dc:creator>
     <cc:Agent>
      <dc:title>Matplotlib v3.10.9, https://matplotlib.org/</dc:title>
     </cc:Agent>
    </dc:creator>
   </cc:Work>
  </rdf:RDF>
 </metadata>
 <defs>
  <style type="text/css">*{stroke-linejoin: round; stroke-linecap: butt}</style>
 </defs>
 <g id="figure_1">
  <g id="patch_1">
   <path d="M 0 396 
L 540 396 
L 540 0 
L 0 0 
z
" style="fill: #ffffff"/>
  </g>
  <g id="axes_1">
   <g id="patch_2">
    <path d="M 47.63 354.04 
L 489.362727 354.04 
L 489.362727 26.88 
L 47.63 26.88 
z
" style="fill: #ffffff"/>
   </g>
   <g id="PathCollection_1">
    <path d="M 169.552982 50.554318 
C 171.887673 50.554318 174.127056 49.626735 175.777932 47.975859 
C 177.428808 46.324983 178.356391 44.0856 178.356391 41.750909 
C 178.356391 39.416218 177.428808 37.176835 175.777932 35.525959 
C 174.127056 33.875083 171.887673 32.947501 169.552982 32.947501 
C 167.218291 32.947501 164.978908 33.875083 163.328032 35.525959 
C 161.677156 37.176835 160.749574 39.416218 160.749574 41.750909 
C 160.749574 44.0856 161.677156 46.324983 163.328032 47.975859 
C 164.978908 49.626735 167.218291 50.554318 169.552982 50.554318 
z
" clip-path="url(#p4ae8b5b66e)" style="fill: #fdc086; fill-opacity: 0.75; stroke: #333333; stroke-opacity: 0.75; stroke-width: 0.6"/>
    <path d="M 208.372524 347.972499 
C 210.707215 347.972499 212.946597 347.044917 214.597473 345.394041 
C 216.248349 343.743165 217.175932 341.503782 217.175932 339.169091 
C 217.175932 336.8344 216.248349 334.595017 214.597473 332.944141 
C 212.946597 331.293265 210.707215 330.365682 208.372524 330.365682 
C 206.037832 330.365682 203.79845 331.293265 202.147574 332.944141 
C 200.496698 334.595017 199.569115 336.8344 199.569115 339.169091 
C 199.569115 341.503782 200.496698 343.743165 202.147574 345.394041 
C 203.79845 347.044917 206.037832 347.972499 208.372524 347.972499 
z
" clip-path="url(#p4ae8b5b66e)" style="fill: #fdc086; fill-opacity: 0.75; stroke: #333333; stroke-opacity: 0.75; stroke-width: 0.6"/>
    <path d="M 202.025983 347.972499 
C 204.360674 347.972499 206.600057 347.044917 208.250933 345.394041 
C 209.901809 343.743165 210.829392 341.503782 210.829392 339.169091 
C 210.829392 336.8344 209.901809 334.595017 208.250933 332.944141 
C 206.600057 331.293265 204.360674 330.365682 202.025983 330.365682 
C 199.691292 330.365682 197.451909 331.293265 195.801033 332.944141 
C 194.150157 334.595017 193.222575 336.8344 193.222575 339.169091 
C 193.222575 341.503782 194.150157 343.743165 195.801033 345.394041 
C 197.451909 347.044917 199.691292 347.972499 202.025983 347.972499 
z
" clip-path="url(#p4ae8b5b66e)" style="fill: #fdc086; fill-opacity: 0.75; stroke: #333333; stroke-opacity: 0.75; stroke-width: 0.6"/>
    <path d="M 406.918043 347.972499 
C 409.252734 347.972499 411.492117 347.044917 413.142993 345.394041 
C 414.793869 343.743165 415.721451 341.503782 415.721451 339.169091 
C 415.721451 336.8344 414.793869 334.595017 413.142993 332.944141 
C 411.492117 331.293265 409.252734 330.365682 406.918043 330.365682 
C 404.583352 330.365682 402.343969 331.293265 400.693093 332.944141 
C 399.042217 334.595017 398.114634 336.8344 398.114634 339.169091 
C 398.114634 341.503782 399.042217 343.743165 400.693093 345.394041 
C 402.343969 347.044917 404.583352 347.972499 406.918043 347.972499 
z
" clip-path="url(#p4ae8b5b66e)" style="fill: #fdc086; fill-opacity: 0.75; stroke: #333333; stroke-opacity: 0.75; stroke-width: 0.6"/>
    <path d="M 204.146493 149.112027 
C 206.481184 149.112027 208.720567 148.184445 210.371443 146.533569 
C 212.022319 144.882693 212.949902 142.64331 212.949902 140.308619 
C 212.949902 137.973928 212.022319 135.734545 210.371443 134.083669 
C 208.720567 132.432793 206.481184 131.50521 204.146493 131.50521 
C 201.811802 131.50521 199.572419 132.432793 197.921543 134.083669 
C 196.270667 135.734545 195.343085 137.973928 195.343085 140.308619 
C 195.343085 142.64331 196.270667 144.882693 197.921543 146.533569 
C 199.572419 148.184445 201.811802 149.112027 204.146493 149.112027 
z
" clip-path="url(#p4ae8b5b66e)" style="fill: #fdc086; fill-opacity: 0.75; stroke: #333333; stroke-opacity: 0.75; stroke-width: 0.6"/>
    <path d="M 469.283967 312.656534 
C 471.618658 312.656534 473.858041 311.728951 475.508917 310.078075 
C 477.159793 308.427199 478.087375 306.187816 478.087375 303.853125 
C 478.087375 301.518434 477.159793 299.279051 475.508917 297.628175 
C 473.858041 295.977299 471.618658 295.049717 469.283967 295.049717 
C 466.949276 295.049717 464.709893 295.977299 463.059017 297.628175 
C 461.408141 299.279051 460.480559 301.518434 460.480559 303.853125 
C 460.480559 306.187816 461.408141 308.427199 463.059017 310.078075 
C 464.709893 311.728951 466.949276 312.656534 469.283967 312.656534 
z
" clip-path="url(#p4ae8b5b66e)" style="fill: #fdc086; fill-opacity: 0.75; stroke: #333333; stroke-opacity: 0.75; stroke-width: 0.6"/>
    <path d="M 406.918043 347.972499 
C 409.252734 347.972499 411.492117 347.044917 413.142993 345.394041 
C 414.793869 343.743165 415.721451 341.503782 415.721451 339.169091 
C 415.721451 336.8344 414.793869 334.595017 413.142993 332.944141 
C 411.492117 331.293265 409.252734 330.365682 406.918043 330.365682 
C 404.583352 330.365682 402.343969 331.293265 400.693093 332.944141 
C 399.042217 334.595017 398.114634 336.8344 398.114634 339.169091 
C 398.114634 341.503782 399.042217 343.743165 400.693093 345.394041 
C 402.343969 347.044917 404.583352 347.972499 406.918043 347.972499 
z
" clip-path="url(#p4ae8b5b66e)" style="fill: #fdc086; fill-opacity: 0.75; stroke: #333333; stroke-opacity: 0.75; stroke-width: 0.6"/>
    <path d="M 67.70876 312.656534 
C 70.043452 312.656534 72.282834 311.728951 73.93371 310.078075 
C 75.584586 308.427199 76.512169 306.187816 76.512169 303.853125 
C 76.512169 301.518434 75.584586 299.279051 73.93371 297.628175 
C 72.282834 295.977299 70.043452 295.049717 67.70876 295.049717 
C 65.374069 295.049717 63.134687 295.977299 61.483811 297.628175 
C 59.832935 299.279051 58.905352 301.518434 58.905352 303.853125 
C 58.905352 306.187816 59.832935 308.427199 61.483811 310.078075 
C 63.134687 311.728951 65.374069 312.656534 67.70876 312.656534 
z
" clip-path="url(#p4ae8b5b66e)" style="fill: #fdc086; fill-opacity: 0.75; stroke: #333333; stroke-opacity: 0.75; stroke-width: 0.6"/>
   </g>
   <g id="matplotlib.axis_1">
    <g id="xtick_1">
     <g id="line2d_1">
      <path d="M 55.494635 354.04 
L 55.494635 26.88 
" clip-path="url(#p4ae8b5b66e)" style="fill: none; stroke: #b0b0b0; stroke-opacity: 0.25; stroke-width: 0.8; stroke-linecap: square"/>
     </g>
     <g id="line2d_2">
      <defs>
       <path id="m1852801003" d="M 0 0 
L 0 3.5 
" style="stroke: #000000; stroke-width: 0.8"/>
      </defs>
      <g>
       <use xlink:href="#m1852801003" x="55.494635" y="354.04" style="stroke: #000000; stroke-width: 0.8"/>
      </g>
     </g>
     <g id="text_1">
      <!-- 2.0 -->
      <g transform="translate(47.543073 368.638437) scale(0.1 -0.1)">
       <defs>
        <path id="DejaVuSans-32" d="M 1228 531 
L 3431 531 
L 3431 0 
L 469 0 
L 469 531 
Q 828 903 1448 1529 
Q 2069 2156 2228 2338 
Q 2531 2678 2651 2914 
Q 2772 3150 2772 3378 
Q 2772 3750 2511 3984 
Q 2250 4219 1831 4219 
Q 1534 4219 1204 4116 
Q 875 4013 500 3803 
L 500 4441 
Q 881 4594 1212 4672 
Q 1544 4750 1819 4750 
Q 2544 4750 2975 4387 
Q 3406 4025 3406 3419 
Q 3406 3131 3298 2873 
Q 3191 2616 2906 2266 
Q 2828 2175 2409 1742 
Q 1991 1309 1228 531 
z
" transform="scale(0.015625)"/>
        <path id="DejaVuSans-2e" d="M 684 794 
L 1344 794 
L 1344 0 
L 684 0 
L 684 794 
z
" transform="scale(0.015625)"/>
        <path id="DejaVuSans-30" d="M 2034 4250 
Q 1547 4250 1301 3770 
Q 1056 3291 1056 2328 
Q 1056 1369 1301 889 
Q 1547 409 2034 409 
Q 2525 409 2770 889 
Q 3016 1369 3016 2328 
Q 3016 3291 2770 3770 
Q 2525 4250 2034 4250 
z
M 2034 4750 
Q 2819 4750 3233 4129 
Q 3647 3509 3647 2328 
Q 3647 1150 3233 529 
Q 2819 -91 2034 -91 
Q 1250 -91 836 529 
Q 422 1150 422 2328 
Q 422 3509 836 4129 
Q 1250 4750 2034 4750 
z
" transform="scale(0.015625)"/>
       </defs>
       <use xlink:href="#DejaVuSans-32"/>
       <use xlink:href="#DejaVuSans-2e" transform="translate(63.623047 0)"/>
       <use xlink:href="#DejaVuSans-30" transform="translate(95.410156 0)"/>
      </g>
     </g>
    </g>
    <g id="xtick_2">
     <g id="line2d_3">
      <path d="M 107.136819 354.04 
L 107.136819 26.88 
" clip-path="url(#p4ae8b5b66e)" style="fill: none; stroke: #b0b0b0; stroke-opacity: 0.25; stroke-width: 0.8; stroke-linecap: square"/>
     </g>
     <g id="line2d_4">
      <g>
       <use xlink:href="#m1852801003" x="107.136819" y="354.04" style="stroke: #000000; stroke-width: 0.8"/>
      </g>
     </g>
     <g id="text_2">
      <!-- 2.5 -->
      <g transform="translate(99.185256 368.638437) scale(0.1 -0.1)">
       <defs>
        <path id="DejaVuSans-35" d="M 691 4666 
L 3169 4666 
L 3169 4134 
L 1269 4134 
L 1269 2991 
Q 1406 3038 1543 3061 
Q 1681 3084 1819 3084 
Q 2600 3084 3056 2656 
Q 3513 2228 3513 1497 
Q 3513 744 3044 326 
Q 2575 -91 1722 -91 
Q 1428 -91 1123 -41 
Q 819 9 494 109 
L 494 744 
Q 775 591 1075 516 
Q 1375 441 1709 441 
Q 2250 441 2565 725 
Q 2881 1009 2881 1497 
Q 2881 1984 2565 2268 
Q 2250 2553 1709 2553 
Q 1456 2553 1204 2497 
Q 953 2441 691 2322 
L 691 4666 
z
" transform="scale(0.015625)"/>
       </defs>
       <use xlink:href="#DejaVuSans-32"/>
       <use xlink:href="#DejaVuSans-2e" transform="translate(63.623047 0)"/>
       <use xlink:href="#DejaVuSans-35" transform="translate(95.410156 0)"/>
      </g>
     </g>
    </g>
    <g id="xtick_3">
     <g id="line2d_5">
      <path d="M 158.779003 354.04 
L 158.779003 26.88 
" clip-path="url(#p4ae8b5b66e)" style="fill: none; stroke: #b0b0b0; stroke-opacity: 0.25; stroke-width: 0.8; stroke-linecap: square"/>
     </g>
     <g id="line2d_6">
      <g>
       <use xlink:href="#m1852801003" x="158.779003" y="354.04" style="stroke: #000000; stroke-width: 0.8"/>
      </g>
     </g>
     <g id="text_3">
      <!-- 3.0 -->
      <g transform="translate(150.82744 368.638437) scale(0.1 -0.1)">
       <defs>
        <path id="DejaVuSans-33" d="M 2597 2516 
Q 3050 2419 3304 2112 
Q 3559 1806 3559 1356 
Q 3559 666 3084 287 
Q 2609 -91 1734 -91 
Q 1441 -91 1130 -33 
Q 819 25 488 141 
L 488 750 
Q 750 597 1062 519 
Q 1375 441 1716 441 
Q 2309 441 2620 675 
Q 2931 909 2931 1356 
Q 2931 1769 2642 2001 
Q 2353 2234 1838 2234 
L 1294 2234 
L 1294 2753 
L 1863 2753 
Q 2328 2753 2575 2939 
Q 2822 3125 2822 3475 
Q 2822 3834 2567 4026 
Q 2313 4219 1838 4219 
Q 1578 4219 1281 4162 
Q 984 4106 628 3988 
L 628 4550 
Q 988 4650 1302 4700 
Q 1616 4750 1894 4750 
Q 2613 4750 3031 4423 
Q 3450 4097 3450 3541 
Q 3450 3153 3228 2886 
Q 3006 2619 2597 2516 
z
" transform="scale(0.015625)"/>
       </defs>
       <use xlink:href="#DejaVuSans-33"/>
       <use xlink:href="#DejaVuSans-2e" transform="translate(63.623047 0)"/>
       <use xlink:href="#DejaVuSans-30" transform="translate(95.410156 0)"/>
      </g>
     </g>
    </g>
    <g id="xtick_4">
     <g id="line2d_7">
      <path d="M 210.421186 354.04 
L 210.421186 26.88 
" clip-path="url(#p4ae8b5b66e)" style="fill: none; stroke: #b0b0b0; stroke-opacity: 0.25; stroke-width: 0.8; stroke-linecap: square"/>
     </g>
     <g id="line2d_8">
      <g>
       <use xlink:href="#m1852801003" x="210.421186" y="354.04" style="stroke: #000000; stroke-width: 0.8"/>
      </g>
     </g>
     <g id="text_4">
      <!-- 3.5 -->
      <g transform="translate(202.469624 368.638437) scale(0.1 -0.1)">
       <use xlink:href="#DejaVuSans-33"/>
       <use xlink:href="#DejaVuSans-2e" transform="translate(63.623047 0)"/>
       <use xlink:href="#DejaVuSans-35" transform="translate(95.410156 0)"/>
      </g>
     </g>
    </g>
    <g id="xtick_5">
     <g id="line2d_9">
      <path d="M 262.06337 354.04 
L 262.06337 26.88 
" clip-path="url(#p4ae8b5b66e)" style="fill: none; stroke: #b0b0b0; stroke-opacity: 0.25; stroke-width: 0.8; stroke-linecap: square"/>
     </g>
     <g id="line2d_10">
      <g>
       <use xlink:href="#m1852801003" x="262.06337" y="354.04" style="stroke: #000000; stroke-width: 0.8"/>
      </g>
     </g>
     <g id="text_5">
      <!-- 4.0 -->
      <g transform="translate(254.111807 368.638437) scale(0.1 -0.1)">
       <defs>
        <path id="DejaVuSans-34" d="M 2419 4116 
L 825 1625 
L 2419 1625 
L 2419 4116 
z
M 2253 4666 
L 3047 4666 
L 3047 1625 
L 3713 1625 
L 3713 1100 
L 3047 1100 
L 3047 0 
L 2419 0 
L 2419 1100 
L 313 1100 
L 313 1709 
L 2253 4666 
z
" transform="scale(0.015625)"/>
       </defs>
       <use xlink:href="#DejaVuSans-34"/>
       <use xlink:href="#DejaVuSans-2e" transform="translate(63.623047 0)"/>
       <use xlink:href="#DejaVuSans-30" transform="translate(95.410156 0)"/>
      </g>
     </g>
    </g>
    <g id="xtick_6">
     <g id="line2d_11">
      <path d="M 313.705554 354.04 
L 313.705554 26.88 
" clip-path="url(#p4ae8b5b66e)" style="fill: none; stroke: #b0b0b0; stroke-opacity: 0.25; stroke-width: 0.8; stroke-linecap: square"/>
     </g>
     <g id="line2d_12">
      <g>
       <use xlink:href="#m1852801003" x="313.705554" y="354.04" style="stroke: #000000; stroke-width: 0.8"/>
      </g>
     </g>
     <g id="text_6">
      <!-- 4.5 -->
      <g transform="translate(305.753991 368.638437) scale(0.1 -0.1)">
       <use xlink:href="#DejaVuSans-34"/>
       <use xlink:href="#DejaVuSans-2e" transform="translate(63.623047 0)"/>
       <use xlink:href="#DejaVuSans-35" transform="translate(95.410156 0)"/>
      </g>
     </g>
    </g>
    <g id="xtick_7">
     <g id="line2d_13">
      <path d="M 365.347737 354.04 
L 365.347737 26.88 
" clip-path="url(#p4ae8b5b66e)" style="fill: none; stroke: #b0b0b0; stroke-opacity: 0.25; stroke-width: 0.8; stroke-linecap: square"/>
     </g>
     <g id="line2d_14">
      <g>
       <use xlink:href="#m1852801003" x="365.347737" y="354.04" style="stroke: #000000; stroke-width: 0.8"/>
      </g>
     </g>
     <g id="text_7">
      <!-- 5.0 -->
      <g transform="translate(357.396175 368.638437) scale(0.1 -0.1)">
       <use xlink:href="#DejaVuSans-35"/>
       <use xlink:href="#DejaVuSans-2e" transform="translate(63.623047 0)"/>
       <use xlink:href="#DejaVuSans-30" transform="translate(95.410156 0)"/>
      </g>
     </g>
    </g>
    <g id="xtick_8">
     <g id="line2d_15">
      <path d="M 416.989921 354.04 
L 416.989921 26.88 
" clip-path="url(#p4ae8b5b66e)" style="fill: none; stroke: #b0b0b0; stroke-opacity: 0.25; stroke-width: 0.8; stroke-linecap: square"/>
     </g>
     <g id="line2d_16">
      <g>
       <use xlink:href="#m1852801003" x="416.989921" y="354.04" style="stroke: #000000; stroke-width: 0.8"/>
      </g>
     </g>
     <g id="text_8">
      <!-- 5.5 -->
      <g transform="translate(409.038359 368.638437) scale(0.1 -0.1)">
       <use xlink:href="#DejaVuSans-35"/>
       <use xlink:href="#DejaVuSans-2e" transform="translate(63.623047 0)"/>
       <use xlink:href="#DejaVuSans-35" transform="translate(95.410156 0)"/>
      </g>
     </g>
    </g>
    <g id="xtick_9">
     <g id="line2d_17">
      <path d="M 468.632105 354.04 
L 468.632105 26.88 
" clip-path="url(#p4ae8b5b66e)" style="fill: none; stroke: #b0b0b0; stroke-opacity: 0.25; stroke-width: 0.8; stroke-linecap: square"/>
     </g>
     <g id="line2d_18">
      <g>
       <use xlink:href="#m1852801003" x="468.632105" y="354.04" style="stroke: #000000; stroke-width: 0.8"/>
      </g>
     </g>
     <g id="text_9">
      <!-- 6.0 -->
      <g transform="translate(460.680542 368.638437) scale(0.1 -0.1)">
       <defs>
        <path id="DejaVuSans-36" d="M 2113 2584 
Q 1688 2584 1439 2293 
Q 1191 2003 1191 1497 
Q 1191 994 1439 701 
Q 1688 409 2113 409 
Q 2538 409 2786 701 
Q 3034 994 3034 1497 
Q 3034 2003 2786 2293 
Q 2538 2584 2113 2584 
z
M 3366 4563 
L 3366 3988 
Q 3128 4100 2886 4159 
Q 2644 4219 2406 4219 
Q 1781 4219 1451 3797 
Q 1122 3375 1075 2522 
Q 1259 2794 1537 2939 
Q 1816 3084 2150 3084 
Q 2853 3084 3261 2657 
Q 3669 2231 3669 1497 
Q 3669 778 3244 343 
Q 2819 -91 2113 -91 
Q 1303 -91 875 529 
Q 447 1150 447 2328 
Q 447 3434 972 4092 
Q 1497 4750 2381 4750 
Q 2619 4750 2861 4703 
Q 3103 4656 3366 4563 
z
" transform="scale(0.015625)"/>
       </defs>
       <use xlink:href="#DejaVuSans-36"/>
       <use xlink:href="#DejaVuSans-2e" transform="translate(63.623047 0)"/>
       <use xlink:href="#DejaVuSans-30" transform="translate(95.410156 0)"/>
      </g>
     </g>
    </g>
    <g id="text_10">
     <!-- Mean transfer size (bytes) -->
     <g transform="translate(202.989332 382.316562) scale(0.1 -0.1)">
      <defs>
       <path id="DejaVuSans-4d" d="M 628 4666 
L 1569 4666 
L 2759 1491 
L 3956 4666 
L 4897 4666 
L 4897 0 
L 4281 0 
L 4281 4097 
L 3078 897 
L 2444 897 
L 1241 4097 
L 1241 0 
L 628 0 
L 628 4666 
z
" transform="scale(0.015625)"/>
       <path id="DejaVuSans-65" d="M 3597 1894 
L 3597 1613 
L 953 1613 
Q 991 1019 1311 708 
Q 1631 397 2203 397 
Q 2534 397 2845 478 
Q 3156 559 3463 722 
L 3463 178 
Q 3153 47 2828 -22 
Q 2503 -91 2169 -91 
Q 1331 -91 842 396 
Q 353 884 353 1716 
Q 353 2575 817 3079 
Q 1281 3584 2069 3584 
Q 2775 3584 3186 3129 
Q 3597 2675 3597 1894 
z
M 3022 2063 
Q 3016 2534 2758 2815 
Q 2500 3097 2075 3097 
Q 1594 3097 1305 2825 
Q 1016 2553 972 2059 
L 3022 2063 
z
" transform="scale(0.015625)"/>
       <path id="DejaVuSans-61" d="M 2194 1759 
Q 1497 1759 1228 1600 
Q 959 1441 959 1056 
Q 959 750 1161 570 
Q 1363 391 1709 391 
Q 2188 391 2477 730 
Q 2766 1069 2766 1631 
L 2766 1759 
L 2194 1759 
z
M 3341 1997 
L 3341 0 
L 2766 0 
L 2766 531 
Q 2569 213 2275 61 
Q 1981 -91 1556 -91 
Q 1019 -91 701 211 
Q 384 513 384 1019 
Q 384 1609 779 1909 
Q 1175 2209 1959 2209 
L 2766 2209 
L 2766 2266 
Q 2766 2663 2505 2880 
Q 2244 3097 1772 3097 
Q 1472 3097 1187 3025 
Q 903 2953 641 2809 
L 641 3341 
Q 956 3463 1253 3523 
Q 1550 3584 1831 3584 
Q 2591 3584 2966 3190 
Q 3341 2797 3341 1997 
z
" transform="scale(0.015625)"/>
       <path id="DejaVuSans-6e" d="M 3513 2113 
L 3513 0 
L 2938 0 
L 2938 2094 
Q 2938 2591 2744 2837 
Q 2550 3084 2163 3084 
Q 1697 3084 1428 2787 
Q 1159 2491 1159 1978 
L 1159 0 
L 581 0 
L 581 3500 
L 1159 3500 
L 1159 2956 
Q 1366 3272 1645 3428 
Q 1925 3584 2291 3584 
Q 2894 3584 3203 3211 
Q 3513 2838 3513 2113 
z
" transform="scale(0.015625)"/>
       <path id="DejaVuSans-20" transform="scale(0.015625)"/>
       <path id="DejaVuSans-74" d="M 1172 4494 
L 1172 3500 
L 2356 3500 
L 2356 3053 
L 1172 3053 
L 1172 1153 
Q 1172 725 1289 603 
Q 1406 481 1766 481 
L 2356 481 
L 2356 0 
L 1766 0 
Q 1100 0 847 248 
Q 594 497 594 1153 
L 594 3053 
L 172 3053 
L 172 3500 
L 594 3500 
L 594 4494 
L 1172 4494 
z
" transform="scale(0.015625)"/>
       <path id="DejaVuSans-72" d="M 2631 2963 
Q 2534 3019 2420 3045 
Q 2306 3072 2169 3072 
Q 1681 3072 1420 2755 
Q 1159 2438 1159 1844 
L 1159 0 
L 581 0 
L 581 3500 
L 1159 3500 
L 1159 2956 
Q 1341 3275 1631 3429 
Q 1922 3584 2338 3584 
Q 2397 3584 2469 3576 
Q 2541 3569 2628 3553 
L 2631 2963 
z
" transform="scale(0.015625)"/>
       <path id="DejaVuSans-73" d="M 2834 3397 
L 2834 2853 
Q 2591 2978 2328 3040 
Q 2066 3103 1784 3103 
Q 1356 3103 1142 2972 
Q 928 2841 928 2578 
Q 928 2378 1081 2264 
Q 1234 2150 1697 2047 
L 1894 2003 
Q 2506 1872 2764 1633 
Q 3022 1394 3022 966 
Q 3022 478 2636 193 
Q 2250 -91 1575 -91 
Q 1294 -91 989 -36 
Q 684 19 347 128 
L 347 722 
Q 666 556 975 473 
Q 1284 391 1588 391 
Q 1994 391 2212 530 
Q 2431 669 2431 922 
Q 2431 1156 2273 1281 
Q 2116 1406 1581 1522 
L 1381 1569 
Q 847 1681 609 1914 
Q 372 2147 372 2553 
Q 372 3047 722 3315 
Q 1072 3584 1716 3584 
Q 2034 3584 2315 3537 
Q 2597 3491 2834 3397 
z
" transform="scale(0.015625)"/>
       <path id="DejaVuSans-66" d="M 2375 4863 
L 2375 4384 
L 1825 4384 
Q 1516 4384 1395 4259 
Q 1275 4134 1275 3809 
L 1275 3500 
L 2222 3500 
L 2222 3053 
L 1275 3053 
L 1275 0 
L 697 0 
L 697 3053 
L 147 3053 
L 147 3500 
L 697 3500 
L 697 3744 
Q 697 4328 969 4595 
Q 1241 4863 1831 4863 
L 2375 4863 
z
" transform="scale(0.015625)"/>
       <path id="DejaVuSans-69" d="M 603 3500 
L 1178 3500 
L 1178 0 
L 603 0 
L 603 3500 
z
M 603 4863 
L 1178 4863 
L 1178 4134 
L 603 4134 
L 603 4863 
z
" transform="scale(0.015625)"/>
       <path id="DejaVuSans-7a" d="M 353 3500 
L 3084 3500 
L 3084 2975 
L 922 459 
L 3084 459 
L 3084 0 
L 275 0 
L 275 525 
L 2438 3041 
L 353 3041 
L 353 3500 
z
" transform="scale(0.015625)"/>
       <path id="DejaVuSans-28" d="M 1984 4856 
Q 1566 4138 1362 3434 
Q 1159 2731 1159 2009 
Q 1159 1288 1364 580 
Q 1569 -128 1984 -844 
L 1484 -844 
Q 1016 -109 783 600 
Q 550 1309 550 2009 
Q 550 2706 781 3412 
Q 1013 4119 1484 4856 
L 1984 4856 
z
" transform="scale(0.015625)"/>
       <path id="DejaVuSans-62" d="M 3116 1747 
Q 3116 2381 2855 2742 
Q 2594 3103 2138 3103 
Q 1681 3103 1420 2742 
Q 1159 2381 1159 1747 
Q 1159 1113 1420 752 
Q 1681 391 2138 391 
Q 2594 391 2855 752 
Q 3116 1113 3116 1747 
z
M 1159 2969 
Q 1341 3281 1617 3432 
Q 1894 3584 2278 3584 
Q 2916 3584 3314 3078 
Q 3713 2572 3713 1747 
Q 3713 922 3314 415 
Q 2916 -91 2278 -91 
Q 1894 -91 1617 61 
Q 1341 213 1159 525 
L 1159 0 
L 581 0 
L 581 4863 
L 1159 4863 
L 1159 2969 
z
" transform="scale(0.015625)"/>
       <path id="DejaVuSans-79" d="M 2059 -325 
Q 1816 -950 1584 -1140 
Q 1353 -1331 966 -1331 
L 506 -1331 
L 506 -850 
L 844 -850 
Q 1081 -850 1212 -737 
Q 1344 -625 1503 -206 
L 1606 56 
L 191 3500 
L 800 3500 
L 1894 763 
L 2988 3500 
L 3597 3500 
L 2059 -325 
z
" transform="scale(0.015625)"/>
       <path id="DejaVuSans-29" d="M 513 4856 
L 1013 4856 
Q 1481 4119 1714 3412 
Q 1947 2706 1947 2009 
Q 1947 1309 1714 600 
Q 1481 -109 1013 -844 
L 513 -844 
Q 928 -128 1133 580 
Q 1338 1288 1338 2009 
Q 1338 2731 1133 3434 
Q 928 4138 513 4856 
z
" transform="scale(0.015625)"/>
      </defs>
      <use xlink:href="#DejaVuSans-4d"/>
      <use xlink:href="#DejaVuSans-65" transform="translate(86.279297 0)"/>
      <use xlink:href="#DejaVuSans-61" transform="translate(147.802734 0)"/>
      <use xlink:href="#DejaVuSans-6e" transform="translate(209.082031 0)"/>
      <use xlink:href="#DejaVuSans-20" transform="translate(272.460938 0)"/>
      <use xlink:href="#DejaVuSans-74" transform="translate(304.248047 0)"/>
      <use xlink:href="#DejaVuSans-72" transform="translate(343.457031 0)"/>
      <use xlink:href="#DejaVuSans-61" transform="translate(384.570312 0)"/>
      <use xlink:href="#DejaVuSans-6e" transform="translate(445.849609 0)"/>
      <use xlink:href="#DejaVuSans-73" transform="translate(509.228516 0)"/>
      <use xlink:href="#DejaVuSans-66" transform="translate(561.328125 0)"/>
      <use xlink:href="#DejaVuSans-65" transform="translate(596.533203 0)"/>
      <use xlink:href="#DejaVuSans-72" transform="translate(658.056641 0)"/>
      <use xlink:href="#DejaVuSans-20" transform="translate(699.169922 0)"/>
      <use xlink:href="#DejaVuSans-73" transform="translate(730.957031 0)"/>
      <use xlink:href="#DejaVuSans-69" transform="translate(783.056641 0)"/>
      <use xlink:href="#DejaVuSans-7a" transform="translate(810.839844 0)"/>
      <use xlink:href="#DejaVuSans-65" transform="translate(863.330078 0)"/>
      <use xlink:href="#DejaVuSans-20" transform="translate(924.853516 0)"/>
      <use xlink:href="#DejaVuSans-28" transform="translate(956.640625 0)"/>
      <use xlink:href="#DejaVuSans-62" transform="translate(995.654297 0)"/>
      <use xlink:href="#DejaVuSans-79" transform="translate(1059.130859 0)"/>
      <use xlink:href="#DejaVuSans-74" transform="translate(1118.310547 0)"/>
      <use xlink:href="#DejaVuSans-65" transform="translate(1157.519531 0)"/>
      <use xlink:href="#DejaVuSans-73" transform="translate(1219.042969 0)"/>
      <use xlink:href="#DejaVuSans-29" transform="translate(1271.142578 0)"/>
     </g>
    </g>
    <g id="text_11">
     <!-- 1e6 -->
     <g transform="translate(470.484602 381.316562) scale(0.1 -0.1)">
      <defs>
       <path id="DejaVuSans-31" d="M 794 531 
L 1825 531 
L 1825 4091 
L 703 3866 
L 703 4441 
L 1819 4666 
L 2450 4666 
L 2450 531 
L 3481 531 
L 3481 0 
L 794 0 
L 794 531 
z
" transform="scale(0.015625)"/>
      </defs>
      <use xlink:href="#DejaVuSans-31"/>
      <use xlink:href="#DejaVuSans-65" transform="translate(63.623047 0)"/>
      <use xlink:href="#DejaVuSans-36" transform="translate(125.146484 0)"/>
     </g>
    </g>
   </g>
   <g id="matplotlib.axis_2">
    <g id="ytick_1">
     <g id="line2d_19">
      <path d="M 47.63 313.645671 
L 489.362727 313.645671 
" clip-path="url(#p4ae8b5b66e)" style="fill: none; stroke: #b0b0b0; stroke-opacity: 0.25; stroke-width: 0.8; stroke-linecap: square"/>
     </g>
     <g id="line2d_20">
      <defs>
       <path id="m7cce1247d2" d="M 0 0 
L -3.5 0 
" style="stroke: #000000; stroke-width: 0.8"/>
      </defs>
      <g>
       <use xlink:href="#m7cce1247d2" x="47.63" y="313.645671" style="stroke: #000000; stroke-width: 0.8"/>
      </g>
     </g>
     <g id="text_12">
      <!-- 2.5 -->
      <g transform="translate(24.726875 317.444889) scale(0.1 -0.1)">
       <use xlink:href="#DejaVuSans-32"/>
       <use xlink:href="#DejaVuSans-2e" transform="translate(63.623047 0)"/>
       <use xlink:href="#DejaVuSans-35" transform="translate(95.410156 0)"/>
      </g>
     </g>
    </g>
    <g id="ytick_2">
     <g id="line2d_21">
      <path d="M 47.63 247.491742 
L 489.362727 247.491742 
" clip-path="url(#p4ae8b5b66e)" style="fill: none; stroke: #b0b0b0; stroke-opacity: 0.25; stroke-width: 0.8; stroke-linecap: square"/>
     </g>
     <g id="line2d_22">
      <g>
       <use xlink:href="#m7cce1247d2" x="47.63" y="247.491742" style="stroke: #000000; stroke-width: 0.8"/>
      </g>
     </g>
     <g id="text_13">
      <!-- 3.0 -->
      <g transform="translate(24.726875 251.290961) scale(0.1 -0.1)">
       <use xlink:href="#DejaVuSans-33"/>
       <use xlink:href="#DejaVuSans-2e" transform="translate(63.623047 0)"/>
       <use xlink:href="#DejaVuSans-30" transform="translate(95.410156 0)"/>
      </g>
     </g>
    </g>
    <g id="ytick_3">
     <g id="line2d_23">
      <path d="M 47.63 181.337814 
L 489.362727 181.337814 
" clip-path="url(#p4ae8b5b66e)" style="fill: none; stroke: #b0b0b0; stroke-opacity: 0.25; stroke-width: 0.8; stroke-linecap: square"/>
     </g>
     <g id="line2d_24">
      <g>
       <use xlink:href="#m7cce1247d2" x="47.63" y="181.337814" style="stroke: #000000; stroke-width: 0.8"/>
      </g>
     </g>
     <g id="text_14">
      <!-- 3.5 -->
      <g transform="translate(24.726875 185.137033) scale(0.1 -0.1)">
       <use xlink:href="#DejaVuSans-33"/>
       <use xlink:href="#DejaVuSans-2e" transform="translate(63.623047 0)"/>
       <use xlink:href="#DejaVuSans-35" transform="translate(95.410156 0)"/>
      </g>
     </g>
    </g>
    <g id="ytick_4">
     <g id="line2d_25">
      <path d="M 47.63 115.183886 
L 489.362727 115.183886 
" clip-path="url(#p4ae8b5b66e)" style="fill: none; stroke: #b0b0b0; stroke-opacity: 0.25; stroke-width: 0.8; stroke-linecap: square"/>
     </g>
     <g id="line2d_26">
      <g>
       <use xlink:href="#m7cce1247d2" x="47.63" y="115.183886" style="stroke: #000000; stroke-width: 0.8"/>
      </g>
     </g>
     <g id="text_15">
      <!-- 4.0 -->
      <g transform="translate(24.726875 118.983105) scale(0.1 -0.1)">
       <use xlink:href="#DejaVuSans-34"/>
       <use xlink:href="#DejaVuSans-2e" transform="translate(63.623047 0)"/>
       <use xlink:href="#DejaVuSans-30" transform="translate(95.410156 0)"/>
      </g>
     </g>
    </g>
    <g id="ytick_5">
     <g id="line2d_27">
      <path d="M 47.63 49.029958 
L 489.362727 49.029958 
" clip-path="url(#p4ae8b5b66e)" style="fill: none; stroke: #b0b0b0; stroke-opacity: 0.25; stroke-width: 0.8; stroke-linecap: square"/>
     </g>
     <g id="line2d_28">
      <g>
       <use xlink:href="#m7cce1247d2" x="47.63" y="49.029958" style="stroke: #000000; stroke-width: 0.8"/>
      </g>
     </g>
     <g id="text_16">
      <!-- 4.5 -->
      <g transform="translate(24.726875 52.829177) scale(0.1 -0.1)">
       <use xlink:href="#DejaVuSans-34"/>
       <use xlink:href="#DejaVuSans-2e" transform="translate(63.623047 0)"/>
       <use xlink:href="#DejaVuSans-35" transform="translate(95.410156 0)"/>
      </g>
     </g>
    </g>
    <g id="text_17">
     <!-- Mean flash writes (bytes) -->
     <g transform="translate(18.647188 253.688906) rotate(-90) scale(0.1 -0.1)">
      <defs>
       <path id="DejaVuSans-6c" d="M 603 4863 
L 1178 4863 
L 1178 0 
L 603 0 
L 603 4863 
z
" transform="scale(0.015625)"/>
       <path id="DejaVuSans-68" d="M 3513 2113 
L 3513 0 
L 2938 0 
L 2938 2094 
Q 2938 2591 2744 2837 
Q 2550 3084 2163 3084 
Q 1697 3084 1428 2787 
Q 1159 2491 1159 1978 
L 1159 0 
L 581 0 
L 581 4863 
L 1159 4863 
L 1159 2956 
Q 1366 3272 1645 3428 
Q 1925 3584 2291 3584 
Q 2894 3584 3203 3211 
Q 3513 2838 3513 2113 
z
" transform="scale(0.015625)"/>
       <path id="DejaVuSans-77" d="M 269 3500 
L 844 3500 
L 1563 769 
L 2278 3500 
L 2956 3500 
L 3675 769 
L 4391 3500 
L 4966 3500 
L 4050 0 
L 3372 0 
L 2619 2869 
L 1863 0 
L 1184 0 
L 269 3500 
z
" transform="scale(0.015625)"/>
      </defs>
      <use xlink:href="#DejaVuSans-4d"/>
      <use xlink:href="#DejaVuSans-65" transform="translate(86.279297 0)"/>
      <use xlink:href="#DejaVuSans-61" transform="translate(147.802734 0)"/>
      <use xlink:href="#DejaVuSans-6e" transform="translate(209.082031 0)"/>
      <use xlink:href="#DejaVuSans-20" transform="translate(272.460938 0)"/>
      <use xlink:href="#DejaVuSans-66" transform="translate(304.248047 0)"/>
      <use xlink:href="#DejaVuSans-6c" transform="translate(339.453125 0)"/>
      <use xlink:href="#DejaVuSans-61" transform="translate(367.236328 0)"/>
      <use xlink:href="#DejaVuSans-73" transform="translate(428.515625 0)"/>
      <use xlink:href="#DejaVuSans-68" transform="translate(480.615234 0)"/>
      <use xlink:href="#DejaVuSans-20" transform="translate(543.994141 0)"/>
      <use xlink:href="#DejaVuSans-77" transform="translate(575.78125 0)"/>
      <use xlink:href="#DejaVuSans-72" transform="translate(657.568359 0)"/>
      <use xlink:href="#DejaVuSans-69" transform="translate(698.681641 0)"/>
      <use xlink:href="#DejaVuSans-74" transform="translate(726.464844 0)"/>
      <use xlink:href="#DejaVuSans-65" transform="translate(765.673828 0)"/>
      <use xlink:href="#DejaVuSans-73" transform="translate(827.197266 0)"/>
      <use xlink:href="#DejaVuSans-20" transform="translate(879.296875 0)"/>
      <use xlink:href="#DejaVuSans-28" transform="translate(911.083984 0)"/>
      <use xlink:href="#DejaVuSans-62" transform="translate(950.097656 0)"/>
      <use xlink:href="#DejaVuSans-79" transform="translate(1013.574219 0)"/>
      <use xlink:href="#DejaVuSans-74" transform="translate(1072.753906 0)"/>
      <use xlink:href="#DejaVuSans-65" transform="translate(1111.962891 0)"/>
      <use xlink:href="#DejaVuSans-73" transform="translate(1173.486328 0)"/>
      <use xlink:href="#DejaVuSans-29" transform="translate(1225.585938 0)"/>
     </g>
    </g>
    <g id="text_18">
     <!-- 1e6 -->
     <g transform="translate(47.63 23.88) scale(0.1 -0.1)">
      <use xlink:href="#DejaVuSans-31"/>
      <use xlink:href="#DejaVuSans-65" transform="translate(63.623047 0)"/>
      <use xlink:href="#DejaVuSans-36" transform="translate(125.146484 0)"/>
     </g>
    </g>
   </g>
   <g id="patch_3">
    <path d="M 47.63 354.04 
L 47.63 26.88 
" style="fill: none; stroke: #000000; stroke-width: 0.8; stroke-linejoin: miter; stroke-linecap: square"/>
   </g>
   <g id="patch_4">
    <path d="M 489.362727 354.04 
L 489.362727 26.88 
" style="fill: none; stroke: #000000; stroke-width: 0.8; stroke-linejoin: miter; stroke-linecap: square"/>
   </g>
   <g id="patch_5">
    <path d="M 47.63 354.04 
L 489.362727 354.04 
" style="fill: none; stroke: #000000; stroke-width: 0.8; stroke-linejoin: miter; stroke-linecap: square"/>
   </g>
   <g id="patch_6">
    <path d="M 47.63 26.88 
L 489.362727 26.88 
" style="fill: none; stroke: #000000; stroke-width: 0.8; stroke-linejoin: miter; stroke-linecap: square"/>
   </g>
   <g id="text_19">
    <!-- backup_safe_copy_delta -->
    <g transform="translate(169.552982 41.750909) scale(0.07 -0.07)">
     <defs>
      <path id="DejaVuSans-63" d="M 3122 3366 
L 3122 2828 
Q 2878 2963 2633 3030 
Q 2388 3097 2138 3097 
Q 1578 3097 1268 2742 
Q 959 2388 959 1747 
Q 959 1106 1268 751 
Q 1578 397 2138 397 
Q 2388 397 2633 464 
Q 2878 531 3122 666 
L 3122 134 
Q 2881 22 2623 -34 
Q 2366 -91 2075 -91 
Q 1284 -91 818 406 
Q 353 903 353 1747 
Q 353 2603 823 3093 
Q 1294 3584 2113 3584 
Q 2378 3584 2631 3529 
Q 2884 3475 3122 3366 
z
" transform="scale(0.015625)"/>
      <path id="DejaVuSans-6b" d="M 581 4863 
L 1159 4863 
L 1159 1991 
L 2875 3500 
L 3609 3500 
L 1753 1863 
L 3688 0 
L 2938 0 
L 1159 1709 
L 1159 0 
L 581 0 
L 581 4863 
z
" transform="scale(0.015625)"/>
      <path id="DejaVuSans-75" d="M 544 1381 
L 544 3500 
L 1119 3500 
L 1119 1403 
Q 1119 906 1312 657 
Q 1506 409 1894 409 
Q 2359 409 2629 706 
Q 2900 1003 2900 1516 
L 2900 3500 
L 3475 3500 
L 3475 0 
L 2900 0 
L 2900 538 
Q 2691 219 2414 64 
Q 2138 -91 1772 -91 
Q 1169 -91 856 284 
Q 544 659 544 1381 
z
M 1991 3584 
L 1991 3584 
z
" transform="scale(0.015625)"/>
      <path id="DejaVuSans-70" d="M 1159 525 
L 1159 -1331 
L 581 -1331 
L 581 3500 
L 1159 3500 
L 1159 2969 
Q 1341 3281 1617 3432 
Q 1894 3584 2278 3584 
Q 2916 3584 3314 3078 
Q 3713 2572 3713 1747 
Q 3713 922 3314 415 
Q 2916 -91 2278 -91 
Q 1894 -91 1617 61 
Q 1341 213 1159 525 
z
M 3116 1747 
Q 3116 2381 2855 2742 
Q 2594 3103 2138 3103 
Q 1681 3103 1420 2742 
Q 1159 2381 1159 1747 
Q 1159 1113 1420 752 
Q 1681 391 2138 391 
Q 2594 391 2855 752 
Q 3116 1113 3116 1747 
z
" transform="scale(0.015625)"/>
      <path id="DejaVuSans-5f" d="M 3263 -1063 
L 3263 -1509 
L -63 -1509 
L -63 -1063 
L 3263 -1063 
z
" transform="scale(0.015625)"/>
      <path id="DejaVuSans-6f" d="M 1959 3097 
Q 1497 3097 1228 2736 
Q 959 2375 959 1747 
Q 959 1119 1226 758 
Q 1494 397 1959 397 
Q 2419 397 2687 759 
Q 2956 1122 2956 1747 
Q 2956 2369 2687 2733 
Q 2419 3097 1959 3097 
z
M 1959 3584 
Q 2709 3584 3137 3096 
Q 3566 2609 3566 1747 
Q 3566 888 3137 398 
Q 2709 -91 1959 -91 
Q 1206 -91 779 398 
Q 353 888 353 1747 
Q 353 2609 779 3096 
Q 1206 3584 1959 3584 
z
" transform="scale(0.015625)"/>
      <path id="DejaVuSans-64" d="M 2906 2969 
L 2906 4863 
L 3481 4863 
L 3481 0 
L 2906 0 
L 2906 525 
Q 2725 213 2448 61 
Q 2172 -91 1784 -91 
Q 1150 -91 751 415 
Q 353 922 353 1747 
Q 353 2572 751 3078 
Q 1150 3584 1784 3584 
Q 2172 3584 2448 3432 
Q 2725 3281 2906 2969 
z
M 947 1747 
Q 947 1113 1208 752 
Q 1469 391 1925 391 
Q 2381 391 2643 752 
Q 2906 1113 2906 1747 
Q 2906 2381 2643 2742 
Q 2381 3103 1925 3103 
Q 1469 3103 1208 2742 
Q 947 2381 947 1747 
z
" transform="scale(0.015625)"/>
     </defs>
     <use xlink:href="#DejaVuSans-62"/>
     <use xlink:href="#DejaVuSans-61" transform="translate(63.476562 0)"/>
     <use xlink:href="#DejaVuSans-63" transform="translate(124.755859 0)"/>
     <use xlink:href="#DejaVuSans-6b" transform="translate(179.736328 0)"/>
     <use xlink:href="#DejaVuSans-75" transform="translate(234.521484 0)"/>
     <use xlink:href="#DejaVuSans-70" transform="translate(297.900391 0)"/>
     <use xlink:href="#DejaVuSans-5f" transform="translate(361.376953 0)"/>
     <use xlink:href="#DejaVuSans-73" transform="translate(411.376953 0)"/>
     <use xlink:href="#DejaVuSans-61" transform="translate(463.476562 0)"/>
     <use xlink:href="#DejaVuSans-66" transform="translate(524.755859 0)"/>
     <use xlink:href="#DejaVuSans-65" transform="translate(559.960938 0)"/>
     <use xlink:href="#DejaVuSans-5f" transform="translate(621.484375 0)"/>
     <use xlink:href="#DejaVuSans-63" transform="translate(671.484375 0)"/>
     <use xlink:href="#DejaVuSans-6f" transform="translate(726.464844 0)"/>
     <use xlink:href="#DejaVuSans-70" transform="translate(787.646484 0)"/>
     <use xlink:href="#DejaVuSans-79" transform="translate(851.123047 0)"/>
     <use xlink:href="#DejaVuSans-5f" transform="translate(910.302734 0)"/>
     <use xlink:href="#DejaVuSans-64" transform="translate(960.302734 0)"/>
     <use xlink:href="#DejaVuSans-65" transform="translate(1023.779297 0)"/>
     <use xlink:href="#DejaVuSans-6c" transform="translate(1085.302734 0)"/>
     <use xlink:href="#DejaVuSans-74" transform="translate(1113.085938 0)"/>
     <use xlink:href="#DejaVuSans-61" transform="translate(1152.294922 0)"/>
    </g>
   </g>
   <g id="text_20">
    <!-- blockwise_bsdiff -->
    <g transform="translate(208.372524 339.169091) scale(0.07 -0.07)">
     <use xlink:href="#DejaVuSans-62"/>
     <use xlink:href="#DejaVuSans-6c" transform="translate(63.476562 0)"/>
     <use xlink:href="#DejaVuSans-6f" transform="translate(91.259766 0)"/>
     <use xlink:href="#DejaVuSans-63" transform="translate(152.441406 0)"/>
     <use xlink:href="#DejaVuSans-6b" transform="translate(207.421875 0)"/>
     <use xlink:href="#DejaVuSans-77" transform="translate(265.332031 0)"/>
     <use xlink:href="#DejaVuSans-69" transform="translate(347.119141 0)"/>
     <use xlink:href="#DejaVuSans-73" transform="translate(374.902344 0)"/>
     <use xlink:href="#DejaVuSans-65" transform="translate(427.001953 0)"/>
     <use xlink:href="#DejaVuSans-5f" transform="translate(488.525391 0)"/>
     <use xlink:href="#DejaVuSans-62" transform="translate(538.525391 0)"/>
     <use xlink:href="#DejaVuSans-73" transform="translate(602.001953 0)"/>
     <use xlink:href="#DejaVuSans-64" transform="translate(654.101562 0)"/>
     <use xlink:href="#DejaVuSans-69" transform="translate(717.578125 0)"/>
     <use xlink:href="#DejaVuSans-66" transform="translate(745.361328 0)"/>
     <use xlink:href="#DejaVuSans-66" transform="translate(780.566406 0)"/>
    </g>
   </g>
   <g id="text_21">
    <!-- copy_delta -->
    <g transform="translate(202.025983 339.169091) scale(0.07 -0.07)">
     <use xlink:href="#DejaVuSans-63"/>
     <use xlink:href="#DejaVuSans-6f" transform="translate(54.980469 0)"/>
     <use xlink:href="#DejaVuSans-70" transform="translate(116.162109 0)"/>
     <use xlink:href="#DejaVuSans-79" transform="translate(179.638672 0)"/>
     <use xlink:href="#DejaVuSans-5f" transform="translate(238.818359 0)"/>
     <use xlink:href="#DejaVuSans-64" transform="translate(288.818359 0)"/>
     <use xlink:href="#DejaVuSans-65" transform="translate(352.294922 0)"/>
     <use xlink:href="#DejaVuSans-6c" transform="translate(413.818359 0)"/>
     <use xlink:href="#DejaVuSans-74" transform="translate(441.601562 0)"/>
     <use xlink:href="#DejaVuSans-61" transform="translate(480.810547 0)"/>
    </g>
   </g>
   <g id="text_22">
    <!-- copy_only -->
    <g transform="translate(406.918043 339.169091) scale(0.07 -0.07)">
     <use xlink:href="#DejaVuSans-63"/>
     <use xlink:href="#DejaVuSans-6f" transform="translate(54.980469 0)"/>
     <use xlink:href="#DejaVuSans-70" transform="translate(116.162109 0)"/>
     <use xlink:href="#DejaVuSans-79" transform="translate(179.638672 0)"/>
     <use xlink:href="#DejaVuSans-5f" transform="translate(238.818359 0)"/>
     <use xlink:href="#DejaVuSans-6f" transform="translate(288.818359 0)"/>
     <use xlink:href="#DejaVuSans-6e" transform="translate(350 0)"/>
     <use xlink:href="#DejaVuSans-6c" transform="translate(413.378906 0)"/>
     <use xlink:href="#DejaVuSans-79" transform="translate(441.162109 0)"/>
    </g>
   </g>
   <g id="text_23">
    <!-- deployment_aware_greedy -->
    <g transform="translate(204.146493 140.308619) scale(0.07 -0.07)">
     <defs>
      <path id="DejaVuSans-6d" d="M 3328 2828 
Q 3544 3216 3844 3400 
Q 4144 3584 4550 3584 
Q 5097 3584 5394 3201 
Q 5691 2819 5691 2113 
L 5691 0 
L 5113 0 
L 5113 2094 
Q 5113 2597 4934 2840 
Q 4756 3084 4391 3084 
Q 3944 3084 3684 2787 
Q 3425 2491 3425 1978 
L 3425 0 
L 2847 0 
L 2847 2094 
Q 2847 2600 2669 2842 
Q 2491 3084 2119 3084 
Q 1678 3084 1418 2786 
Q 1159 2488 1159 1978 
L 1159 0 
L 581 0 
L 581 3500 
L 1159 3500 
L 1159 2956 
Q 1356 3278 1631 3431 
Q 1906 3584 2284 3584 
Q 2666 3584 2933 3390 
Q 3200 3197 3328 2828 
z
" transform="scale(0.015625)"/>
      <path id="DejaVuSans-67" d="M 2906 1791 
Q 2906 2416 2648 2759 
Q 2391 3103 1925 3103 
Q 1463 3103 1205 2759 
Q 947 2416 947 1791 
Q 947 1169 1205 825 
Q 1463 481 1925 481 
Q 2391 481 2648 825 
Q 2906 1169 2906 1791 
z
M 3481 434 
Q 3481 -459 3084 -895 
Q 2688 -1331 1869 -1331 
Q 1566 -1331 1297 -1286 
Q 1028 -1241 775 -1147 
L 775 -588 
Q 1028 -725 1275 -790 
Q 1522 -856 1778 -856 
Q 2344 -856 2625 -561 
Q 2906 -266 2906 331 
L 2906 616 
Q 2728 306 2450 153 
Q 2172 0 1784 0 
Q 1141 0 747 490 
Q 353 981 353 1791 
Q 353 2603 747 3093 
Q 1141 3584 1784 3584 
Q 2172 3584 2450 3431 
Q 2728 3278 2906 2969 
L 2906 3500 
L 3481 3500 
L 3481 434 
z
" transform="scale(0.015625)"/>
     </defs>
     <use xlink:href="#DejaVuSans-64"/>
     <use xlink:href="#DejaVuSans-65" transform="translate(63.476562 0)"/>
     <use xlink:href="#DejaVuSans-70" transform="translate(125 0)"/>
     <use xlink:href="#DejaVuSans-6c" transform="translate(188.476562 0)"/>
     <use xlink:href="#DejaVuSans-6f" transform="translate(216.259766 0)"/>
     <use xlink:href="#DejaVuSans-79" transform="translate(277.441406 0)"/>
     <use xlink:href="#DejaVuSans-6d" transform="translate(336.621094 0)"/>
     <use xlink:href="#DejaVuSans-65" transform="translate(434.033203 0)"/>
     <use xlink:href="#DejaVuSans-6e" transform="translate(495.556641 0)"/>
     <use xlink:href="#DejaVuSans-74" transform="translate(558.935547 0)"/>
     <use xlink:href="#DejaVuSans-5f" transform="translate(598.144531 0)"/>
     <use xlink:href="#DejaVuSans-61" transform="translate(648.144531 0)"/>
     <use xlink:href="#DejaVuSans-77" transform="translate(709.423828 0)"/>
     <use xlink:href="#DejaVuSans-61" transform="translate(791.210938 0)"/>
     <use xlink:href="#DejaVuSans-72" transform="translate(852.490234 0)"/>
     <use xlink:href="#DejaVuSans-65" transform="translate(891.353516 0)"/>
     <use xlink:href="#DejaVuSans-5f" transform="translate(952.876953 0)"/>
     <use xlink:href="#DejaVuSans-67" transform="translate(1002.876953 0)"/>
     <use xlink:href="#DejaVuSans-72" transform="translate(1066.353516 0)"/>
     <use xlink:href="#DejaVuSans-65" transform="translate(1105.216797 0)"/>
     <use xlink:href="#DejaVuSans-65" transform="translate(1166.740234 0)"/>
     <use xlink:href="#DejaVuSans-64" transform="translate(1228.263672 0)"/>
     <use xlink:href="#DejaVuSans-79" transform="translate(1291.740234 0)"/>
    </g>
   </g>
   <g id="text_24">
    <!-- full_replacement -->
    <g transform="translate(469.283967 303.853125) scale(0.07 -0.07)">
     <use xlink:href="#DejaVuSans-66"/>
     <use xlink:href="#DejaVuSans-75" transform="translate(35.205078 0)"/>
     <use xlink:href="#DejaVuSans-6c" transform="translate(98.583984 0)"/>
     <use xlink:href="#DejaVuSans-6c" transform="translate(126.367188 0)"/>
     <use xlink:href="#DejaVuSans-5f" transform="translate(154.150391 0)"/>
     <use xlink:href="#DejaVuSans-72" transform="translate(204.150391 0)"/>
     <use xlink:href="#DejaVuSans-65" transform="translate(243.013672 0)"/>
     <use xlink:href="#DejaVuSans-70" transform="translate(304.537109 0)"/>
     <use xlink:href="#DejaVuSans-6c" transform="translate(368.013672 0)"/>
     <use xlink:href="#DejaVuSans-61" transform="translate(395.796875 0)"/>
     <use xlink:href="#DejaVuSans-63" transform="translate(457.076172 0)"/>
     <use xlink:href="#DejaVuSans-65" transform="translate(512.056641 0)"/>
     <use xlink:href="#DejaVuSans-6d" transform="translate(573.580078 0)"/>
     <use xlink:href="#DejaVuSans-65" transform="translate(670.992188 0)"/>
     <use xlink:href="#DejaVuSans-6e" transform="translate(732.515625 0)"/>
     <use xlink:href="#DejaVuSans-74" transform="translate(795.894531 0)"/>
    </g>
   </g>
   <g id="text_25">
    <!-- rsync_rolling_hash -->
    <g transform="translate(406.918043 339.169091) scale(0.07 -0.07)">
     <use xlink:href="#DejaVuSans-72"/>
     <use xlink:href="#DejaVuSans-73" transform="translate(41.113281 0)"/>
     <use xlink:href="#DejaVuSans-79" transform="translate(93.212891 0)"/>
     <use xlink:href="#DejaVuSans-6e" transform="translate(152.392578 0)"/>
     <use xlink:href="#DejaVuSans-63" transform="translate(215.771484 0)"/>
     <use xlink:href="#DejaVuSans-5f" transform="translate(270.751953 0)"/>
     <use xlink:href="#DejaVuSans-72" transform="translate(320.751953 0)"/>
     <use xlink:href="#DejaVuSans-6f" transform="translate(359.615234 0)"/>
     <use xlink:href="#DejaVuSans-6c" transform="translate(420.796875 0)"/>
     <use xlink:href="#DejaVuSans-6c" transform="translate(448.580078 0)"/>
     <use xlink:href="#DejaVuSans-69" transform="translate(476.363281 0)"/>
     <use xlink:href="#DejaVuSans-6e" transform="translate(504.146484 0)"/>
     <use xlink:href="#DejaVuSans-67" transform="translate(567.525391 0)"/>
     <use xlink:href="#DejaVuSans-5f" transform="translate(631.001953 0)"/>
     <use xlink:href="#DejaVuSans-68" transform="translate(681.001953 0)"/>
     <use xlink:href="#DejaVuSans-61" transform="translate(744.380859 0)"/>
     <use xlink:href="#DejaVuSans-73" transform="translate(805.660156 0)"/>
     <use xlink:href="#DejaVuSans-68" transform="translate(857.759766 0)"/>
    </g>
   </g>
   <g id="text_26">
    <!-- whole_file_bsdiff -->
    <g transform="translate(67.70876 303.853125) scale(0.07 -0.07)">
     <use xlink:href="#DejaVuSans-77"/>
     <use xlink:href="#DejaVuSans-68" transform="translate(81.787109 0)"/>
     <use xlink:href="#DejaVuSans-6f" transform="translate(145.166016 0)"/>
     <use xlink:href="#DejaVuSans-6c" transform="translate(206.347656 0)"/>
     <use xlink:href="#DejaVuSans-65" transform="translate(234.130859 0)"/>
     <use xlink:href="#DejaVuSans-5f" transform="translate(295.654297 0)"/>
     <use xlink:href="#DejaVuSans-66" transform="translate(345.654297 0)"/>
     <use xlink:href="#DejaVuSans-69" transform="translate(380.859375 0)"/>
     <use xlink:href="#DejaVuSans-6c" transform="translate(408.642578 0)"/>
     <use xlink:href="#DejaVuSans-65" transform="translate(436.425781 0)"/>
     <use xlink:href="#DejaVuSans-5f" transform="translate(497.949219 0)"/>
     <use xlink:href="#DejaVuSans-62" transform="translate(547.949219 0)"/>
     <use xlink:href="#DejaVuSans-73" transform="translate(611.425781 0)"/>
     <use xlink:href="#DejaVuSans-64" transform="translate(663.525391 0)"/>
     <use xlink:href="#DejaVuSans-69" transform="translate(727.001953 0)"/>
     <use xlink:href="#DejaVuSans-66" transform="translate(754.785156 0)"/>
     <use xlink:href="#DejaVuSans-66" transform="translate(789.990234 0)"/>
    </g>
   </g>
   <g id="text_27">
    <!-- Transfer/flash tradeoff; marker size is success rate -->
    <g transform="translate(117.128551 20.88) scale(0.12 -0.12)">
     <defs>
      <path id="DejaVuSans-54" d="M -19 4666 
L 3928 4666 
L 3928 4134 
L 2272 4134 
L 2272 0 
L 1638 0 
L 1638 4134 
L -19 4134 
L -19 4666 
z
" transform="scale(0.015625)"/>
      <path id="DejaVuSans-2f" d="M 1625 4666 
L 2156 4666 
L 531 -594 
L 0 -594 
L 1625 4666 
z
" transform="scale(0.015625)"/>
      <path id="DejaVuSans-3b" d="M 750 3309 
L 1409 3309 
L 1409 2516 
L 750 2516 
L 750 3309 
z
M 750 794 
L 1409 794 
L 1409 256 
L 897 -744 
L 494 -744 
L 750 256 
L 750 794 
z
" transform="scale(0.015625)"/>
     </defs>
     <use xlink:href="#DejaVuSans-54"/>
     <use xlink:href="#DejaVuSans-72" transform="translate(46.333984 0)"/>
     <use xlink:href="#DejaVuSans-61" transform="translate(87.447266 0)"/>
     <use xlink:href="#DejaVuSans-6e" transform="translate(148.726562 0)"/>
     <use xlink:href="#DejaVuSans-73" transform="translate(212.105469 0)"/>
     <use xlink:href="#DejaVuSans-66" transform="translate(264.205078 0)"/>
     <use xlink:href="#DejaVuSans-65" transform="translate(299.410156 0)"/>
     <use xlink:href="#DejaVuSans-72" transform="translate(360.933594 0)"/>
     <use xlink:href="#DejaVuSans-2f" transform="translate(402.046875 0)"/>
     <use xlink:href="#DejaVuSans-66" transform="translate(435.738281 0)"/>
     <use xlink:href="#DejaVuSans-6c" transform="translate(470.943359 0)"/>
     <use xlink:href="#DejaVuSans-61" transform="translate(498.726562 0)"/>
     <use xlink:href="#DejaVuSans-73" transform="translate(560.005859 0)"/>
     <use xlink:href="#DejaVuSans-68" transform="translate(612.105469 0)"/>
     <use xlink:href="#DejaVuSans-20" transform="translate(675.484375 0)"/>
     <use xlink:href="#DejaVuSans-74" transform="translate(707.271484 0)"/>
     <use xlink:href="#DejaVuSans-72" transform="translate(746.480469 0)"/>
     <use xlink:href="#DejaVuSans-61" transform="translate(787.59375 0)"/>
     <use xlink:href="#DejaVuSans-64" transform="translate(848.873047 0)"/>
     <use xlink:href="#DejaVuSans-65" transform="translate(912.349609 0)"/>
     <use xlink:href="#DejaVuSans-6f" transform="translate(973.873047 0)"/>
     <use xlink:href="#DejaVuSans-66" transform="translate(1035.054688 0)"/>
     <use xlink:href="#DejaVuSans-66" transform="translate(1070.259766 0)"/>
     <use xlink:href="#DejaVuSans-3b" transform="translate(1105.464844 0)"/>
     <use xlink:href="#DejaVuSans-20" transform="translate(1139.15625 0)"/>
     <use xlink:href="#DejaVuSans-6d" transform="translate(1170.943359 0)"/>
     <use xlink:href="#DejaVuSans-61" transform="translate(1268.355469 0)"/>
     <use xlink:href="#DejaVuSans-72" transform="translate(1329.634766 0)"/>
     <use xlink:href="#DejaVuSans-6b" transform="translate(1370.748047 0)"/>
     <use xlink:href="#DejaVuSans-65" transform="translate(1425.033203 0)"/>
     <use xlink:href="#DejaVuSans-72" transform="translate(1486.556641 0)"/>
     <use xlink:href="#DejaVuSans-20" transform="translate(1527.669922 0)"/>
     <use xlink:href="#DejaVuSans-73" transform="translate(1559.457031 0)"/>
     <use xlink:href="#DejaVuSans-69" transform="translate(1611.556641 0)"/>
     <use xlink:href="#DejaVuSans-7a" transform="translate(1639.339844 0)"/>
     <use xlink:href="#DejaVuSans-65" transform="translate(1691.830078 0)"/>
     <use xlink:href="#DejaVuSans-20" transform="translate(1753.353516 0)"/>
     <use xlink:href="#DejaVuSans-69" transform="translate(1785.140625 0)"/>
     <use xlink:href="#DejaVuSans-73" transform="translate(1812.923828 0)"/>
     <use xlink:href="#DejaVuSans-20" transform="translate(1865.023438 0)"/>
     <use xlink:href="#DejaVuSans-73" transform="translate(1896.810547 0)"/>
     <use xlink:href="#DejaVuSans-75" transform="translate(1948.910156 0)"/>
     <use xlink:href="#DejaVuSans-63" transform="translate(2012.289062 0)"/>
     <use xlink:href="#DejaVuSans-63" transform="translate(2067.269531 0)"/>
     <use xlink:href="#DejaVuSans-65" transform="translate(2122.25 0)"/>
     <use xlink:href="#DejaVuSans-73" transform="translate(2183.773438 0)"/>
     <use xlink:href="#DejaVuSans-73" transform="translate(2235.873047 0)"/>
     <use xlink:href="#DejaVuSans-20" transform="translate(2287.972656 0)"/>
     <use xlink:href="#DejaVuSans-72" transform="translate(2319.759766 0)"/>
     <use xlink:href="#DejaVuSans-61" transform="translate(2360.873047 0)"/>
     <use xlink:href="#DejaVuSans-74" transform="translate(2422.152344 0)"/>
     <use xlink:href="#DejaVuSans-65" transform="translate(2461.361328 0)"/>
    </g>
   </g>
  </g>
 </g>
 <defs>
  <clipPath id="p4ae8b5b66e">
   <rect x="47.63" y="26.88" width="441.732727" height="327.16"/>
  </clipPath>
 </defs>
</svg>
